<mxfile host="app.diagrams.net" modified="2024-03-17T14:06:48.619Z" agent="Mozilla/5.0 (Windows NT 10.0; Win64; x64) AppleWebKit/537.36 (KHTML, like Gecko) Chrome/122.0.0.0 Safari/537.36" etag="fPmz7VwGTj8Ndj0uh-aH" version="24.0.7" type="device">
  <diagram id="prtHgNgQTEPvFCAcTncT" name="Page-1">
    <mxGraphModel dx="1716" dy="-352" grid="1" gridSize="10" guides="1" tooltips="1" connect="1" arrows="1" fold="1" page="1" pageScale="1" pageWidth="827" pageHeight="1169" math="0" shadow="0">
      <root>
        <mxCell id="0" />
        <mxCell id="1" parent="0" />
        <mxCell id="vkENzP75K5TKaXmKiikp-88" value="" style="rounded=0;whiteSpace=wrap;html=1;" parent="1" vertex="1">
          <mxGeometry x="-680" y="1370" width="10" height="800" as="geometry" />
        </mxCell>
        <mxCell id="vkENzP75K5TKaXmKiikp-89" value="" style="rounded=0;whiteSpace=wrap;html=1;" parent="1" vertex="1">
          <mxGeometry x="-440" y="1370" width="10" height="800" as="geometry" />
        </mxCell>
        <mxCell id="vkENzP75K5TKaXmKiikp-90" value="" style="rounded=0;whiteSpace=wrap;html=1;" parent="1" vertex="1">
          <mxGeometry x="-200" y="1370" width="10" height="800" as="geometry" />
        </mxCell>
        <mxCell id="vkENzP75K5TKaXmKiikp-91" value="Учащийся" style="shape=umlActor;verticalLabelPosition=bottom;verticalAlign=top;html=1;outlineConnect=0;" parent="1" vertex="1">
          <mxGeometry x="-690" y="1290" width="30" height="60" as="geometry" />
        </mxCell>
        <mxCell id="vkENzP75K5TKaXmKiikp-92" value="" style="group" parent="1" vertex="1" connectable="0">
          <mxGeometry x="-487.5" y="1290" width="105" height="40" as="geometry" />
        </mxCell>
        <mxCell id="vkENzP75K5TKaXmKiikp-93" value="" style="rounded=0;whiteSpace=wrap;html=1;" parent="vkENzP75K5TKaXmKiikp-92" vertex="1">
          <mxGeometry width="105" height="40" as="geometry" />
        </mxCell>
        <mxCell id="vkENzP75K5TKaXmKiikp-94" value=":Устройство" style="text;html=1;align=center;verticalAlign=middle;resizable=0;points=[];autosize=1;strokeColor=none;fillColor=none;" parent="vkENzP75K5TKaXmKiikp-92" vertex="1">
          <mxGeometry x="7.5" y="5" width="90" height="30" as="geometry" />
        </mxCell>
        <mxCell id="vkENzP75K5TKaXmKiikp-95" value="" style="group" parent="1" vertex="1" connectable="0">
          <mxGeometry x="-247.5" y="1290" width="105" height="40" as="geometry" />
        </mxCell>
        <mxCell id="vkENzP75K5TKaXmKiikp-96" value="" style="rounded=0;whiteSpace=wrap;html=1;" parent="vkENzP75K5TKaXmKiikp-95" vertex="1">
          <mxGeometry width="105" height="40" as="geometry" />
        </mxCell>
        <mxCell id="vkENzP75K5TKaXmKiikp-97" value=":Сервер" style="text;html=1;align=center;verticalAlign=middle;resizable=0;points=[];autosize=1;strokeColor=none;fillColor=none;" parent="vkENzP75K5TKaXmKiikp-95" vertex="1">
          <mxGeometry x="17.5" y="5" width="70" height="30" as="geometry" />
        </mxCell>
        <mxCell id="vkENzP75K5TKaXmKiikp-98" value="" style="endArrow=none;dashed=1;html=1;rounded=0;entryX=0.5;entryY=1;entryDx=0;entryDy=0;exitX=0.5;exitY=0;exitDx=0;exitDy=0;" parent="1" source="vkENzP75K5TKaXmKiikp-89" target="vkENzP75K5TKaXmKiikp-93" edge="1">
          <mxGeometry width="50" height="50" relative="1" as="geometry">
            <mxPoint x="-370" y="1420" as="sourcePoint" />
            <mxPoint x="-320" y="1370" as="targetPoint" />
          </mxGeometry>
        </mxCell>
        <mxCell id="vkENzP75K5TKaXmKiikp-99" value="" style="endArrow=none;dashed=1;html=1;rounded=0;entryX=0.5;entryY=1;entryDx=0;entryDy=0;exitX=0.5;exitY=0;exitDx=0;exitDy=0;" parent="1" source="vkENzP75K5TKaXmKiikp-90" target="vkENzP75K5TKaXmKiikp-96" edge="1">
          <mxGeometry width="50" height="50" relative="1" as="geometry">
            <mxPoint x="-425" y="1380" as="sourcePoint" />
            <mxPoint x="-425" y="1340" as="targetPoint" />
          </mxGeometry>
        </mxCell>
        <mxCell id="vkENzP75K5TKaXmKiikp-100" value="" style="group" parent="1" vertex="1" connectable="0">
          <mxGeometry x="-625" y="1390" width="140" height="30" as="geometry" />
        </mxCell>
        <mxCell id="vkENzP75K5TKaXmKiikp-101" value="" style="endArrow=classic;html=1;rounded=0;exitX=1.029;exitY=0.051;exitDx=0;exitDy=0;exitPerimeter=0;entryX=-0.19;entryY=0.052;entryDx=0;entryDy=0;entryPerimeter=0;" parent="vkENzP75K5TKaXmKiikp-100" source="vkENzP75K5TKaXmKiikp-88" target="vkENzP75K5TKaXmKiikp-89" edge="1">
          <mxGeometry width="50" height="50" relative="1" as="geometry">
            <mxPoint x="-5" y="80" as="sourcePoint" />
            <mxPoint x="45" y="30" as="targetPoint" />
          </mxGeometry>
        </mxCell>
        <mxCell id="vkENzP75K5TKaXmKiikp-102" value="Открыть приложение" style="text;html=1;align=center;verticalAlign=middle;resizable=0;points=[];autosize=1;strokeColor=none;fillColor=none;" parent="vkENzP75K5TKaXmKiikp-100" vertex="1">
          <mxGeometry width="140" height="30" as="geometry" />
        </mxCell>
        <mxCell id="vkENzP75K5TKaXmKiikp-103" value="" style="endArrow=none;html=1;rounded=0;" parent="1" edge="1">
          <mxGeometry width="50" height="50" relative="1" as="geometry">
            <mxPoint x="-810" y="1480" as="sourcePoint" />
            <mxPoint x="-90" y="1480" as="targetPoint" />
          </mxGeometry>
        </mxCell>
        <mxCell id="vkENzP75K5TKaXmKiikp-104" value="&lt;b&gt;Добавление ответа&lt;/b&gt;&lt;div&gt;&lt;b&gt;на задание&lt;/b&gt;&lt;/div&gt;" style="text;html=1;align=center;verticalAlign=middle;resizable=0;points=[];autosize=1;strokeColor=none;fillColor=none;" parent="1" vertex="1">
          <mxGeometry x="-820" y="1495" width="140" height="40" as="geometry" />
        </mxCell>
        <mxCell id="vkENzP75K5TKaXmKiikp-105" value="" style="group" parent="1" vertex="1" connectable="0">
          <mxGeometry x="-625" y="1495" width="165" height="40" as="geometry" />
        </mxCell>
        <mxCell id="vkENzP75K5TKaXmKiikp-106" value="" style="endArrow=classic;html=1;rounded=0;exitX=1.267;exitY=0.202;exitDx=0;exitDy=0;exitPerimeter=0;entryX=-0.267;entryY=0.203;entryDx=0;entryDy=0;entryPerimeter=0;" parent="vkENzP75K5TKaXmKiikp-105" source="vkENzP75K5TKaXmKiikp-88" target="vkENzP75K5TKaXmKiikp-89" edge="1">
          <mxGeometry width="50" height="50" relative="1" as="geometry">
            <mxPoint x="55" y="105" as="sourcePoint" />
            <mxPoint x="105" y="55" as="targetPoint" />
          </mxGeometry>
        </mxCell>
        <mxCell id="vkENzP75K5TKaXmKiikp-107" value="Открыть страницу заданий" style="text;html=1;align=center;verticalAlign=middle;resizable=0;points=[];autosize=1;strokeColor=none;fillColor=none;" parent="vkENzP75K5TKaXmKiikp-105" vertex="1">
          <mxGeometry x="-20" y="5" width="170" height="30" as="geometry" />
        </mxCell>
        <mxCell id="vkENzP75K5TKaXmKiikp-108" value="" style="group" parent="1" vertex="1" connectable="0">
          <mxGeometry x="-625" y="1416" width="150" height="40" as="geometry" />
        </mxCell>
        <mxCell id="vkENzP75K5TKaXmKiikp-109" value="" style="endArrow=classic;html=1;rounded=0;entryX=1.105;entryY=0.101;entryDx=0;entryDy=0;entryPerimeter=0;exitX=-0.229;exitY=0.102;exitDx=0;exitDy=0;exitPerimeter=0;dashed=1;" parent="vkENzP75K5TKaXmKiikp-108" source="vkENzP75K5TKaXmKiikp-89" target="vkENzP75K5TKaXmKiikp-88" edge="1">
          <mxGeometry width="50" height="50" relative="1" as="geometry">
            <mxPoint x="90" y="74" as="sourcePoint" />
            <mxPoint x="140" y="24" as="targetPoint" />
          </mxGeometry>
        </mxCell>
        <mxCell id="vkENzP75K5TKaXmKiikp-110" value="Отобразить главную&lt;div&gt;страницу приложения&lt;/div&gt;" style="text;html=1;align=center;verticalAlign=middle;resizable=0;points=[];autosize=1;strokeColor=none;fillColor=none;" parent="vkENzP75K5TKaXmKiikp-108" vertex="1">
          <mxGeometry width="150" height="40" as="geometry" />
        </mxCell>
        <mxCell id="vkENzP75K5TKaXmKiikp-111" value="" style="group" parent="1" vertex="1" connectable="0">
          <mxGeometry x="-635" y="1621" width="185" height="40" as="geometry" />
        </mxCell>
        <mxCell id="vkENzP75K5TKaXmKiikp-112" value="" style="group" parent="vkENzP75K5TKaXmKiikp-111" vertex="1" connectable="0">
          <mxGeometry width="185" height="40" as="geometry" />
        </mxCell>
        <mxCell id="vkENzP75K5TKaXmKiikp-113" value="Отобразить страницу заданий" style="text;html=1;align=center;verticalAlign=middle;resizable=0;points=[];autosize=1;strokeColor=none;fillColor=none;" parent="vkENzP75K5TKaXmKiikp-112" vertex="1">
          <mxGeometry x="-20" y="5" width="190" height="30" as="geometry" />
        </mxCell>
        <mxCell id="vkENzP75K5TKaXmKiikp-114" value="" style="endArrow=classic;html=1;rounded=0;entryX=1;entryY=0.25;entryDx=0;entryDy=0;exitX=0;exitY=0.25;exitDx=0;exitDy=0;dashed=1;" parent="1" edge="1">
          <mxGeometry width="50" height="50" relative="1" as="geometry">
            <mxPoint x="-440" y="1661.0000000000007" as="sourcePoint" />
            <mxPoint x="-669.9999999999999" y="1661" as="targetPoint" />
          </mxGeometry>
        </mxCell>
        <mxCell id="vkENzP75K5TKaXmKiikp-115" value="" style="endArrow=classic;html=1;rounded=0;exitX=1;exitY=0.5;exitDx=0;exitDy=0;entryX=0;entryY=0.5;entryDx=0;entryDy=0;" parent="1" edge="1">
          <mxGeometry width="50" height="50" relative="1" as="geometry">
            <mxPoint x="-670.0000000000002" y="1740" as="sourcePoint" />
            <mxPoint x="-439.9999999999998" y="1740" as="targetPoint" />
          </mxGeometry>
        </mxCell>
        <mxCell id="vkENzP75K5TKaXmKiikp-116" value="Выбрать интересующее задание" style="text;html=1;align=center;verticalAlign=middle;resizable=0;points=[];autosize=1;strokeColor=none;fillColor=none;" parent="1" vertex="1">
          <mxGeometry x="-663.5" y="1710" width="210" height="30" as="geometry" />
        </mxCell>
        <mxCell id="vkENzP75K5TKaXmKiikp-127" value="" style="endArrow=classic;html=1;rounded=0;exitX=-0.145;exitY=0.822;exitDx=0;exitDy=0;exitPerimeter=0;dashed=1;entryX=1.149;entryY=0.821;entryDx=0;entryDy=0;entryPerimeter=0;" parent="1" edge="1">
          <mxGeometry width="50" height="50" relative="1" as="geometry">
            <mxPoint x="-441.46999999999935" y="2007.6" as="sourcePoint" />
            <mxPoint x="-668.5299999999997" y="2006.7999999999997" as="targetPoint" />
          </mxGeometry>
        </mxCell>
        <mxCell id="vkENzP75K5TKaXmKiikp-128" value="" style="group" parent="1" vertex="1" connectable="0">
          <mxGeometry x="-633.52" y="1970" width="175" height="40" as="geometry" />
        </mxCell>
        <mxCell id="vkENzP75K5TKaXmKiikp-129" value="Уведомить об успешности&lt;div&gt;отправки ответа&lt;/div&gt;" style="text;html=1;align=center;verticalAlign=middle;resizable=0;points=[];autosize=1;strokeColor=none;fillColor=none;" parent="vkENzP75K5TKaXmKiikp-128" vertex="1">
          <mxGeometry x="-10" width="170" height="40" as="geometry" />
        </mxCell>
        <mxCell id="vkENzP75K5TKaXmKiikp-138" value="" style="group" parent="1" vertex="1" connectable="0">
          <mxGeometry x="-382.5" y="1530" width="195" height="40" as="geometry" />
        </mxCell>
        <mxCell id="vkENzP75K5TKaXmKiikp-139" value="Запросить список&lt;div&gt;домашних заданий&lt;/div&gt;" style="text;html=1;align=center;verticalAlign=middle;resizable=0;points=[];autosize=1;strokeColor=none;fillColor=none;" parent="vkENzP75K5TKaXmKiikp-138" vertex="1">
          <mxGeometry width="130" height="40" as="geometry" />
        </mxCell>
        <mxCell id="vkENzP75K5TKaXmKiikp-140" value="" style="endArrow=classic;html=1;rounded=0;exitX=1;exitY=0.25;exitDx=0;exitDy=0;entryX=0;entryY=0.25;entryDx=0;entryDy=0;" parent="1" source="vkENzP75K5TKaXmKiikp-89" target="vkENzP75K5TKaXmKiikp-90" edge="1">
          <mxGeometry width="50" height="50" relative="1" as="geometry">
            <mxPoint x="-355" y="1625" as="sourcePoint" />
            <mxPoint x="-305" y="1575" as="targetPoint" />
          </mxGeometry>
        </mxCell>
        <mxCell id="vkENzP75K5TKaXmKiikp-141" value="" style="endArrow=classic;html=1;rounded=0;exitX=-0.367;exitY=0.668;exitDx=0;exitDy=0;exitPerimeter=0;entryX=1.167;entryY=0.669;entryDx=0;entryDy=0;entryPerimeter=0;dashed=1;" parent="1" edge="1">
          <mxGeometry width="50" height="50" relative="1" as="geometry">
            <mxPoint x="-201.5" y="1620" as="sourcePoint" />
            <mxPoint x="-425.5" y="1621" as="targetPoint" />
          </mxGeometry>
        </mxCell>
        <mxCell id="vkENzP75K5TKaXmKiikp-142" value="Вернуть список домашних заданий" style="text;html=1;align=center;verticalAlign=middle;resizable=0;points=[];autosize=1;strokeColor=none;fillColor=none;" parent="1" vertex="1">
          <mxGeometry x="-430" y="1586" width="220" height="30" as="geometry" />
        </mxCell>
        <mxCell id="wXZm230qfCR7dl6KXvyp-1" value="" style="group" parent="1" vertex="1" connectable="0">
          <mxGeometry x="-635" y="1769.09" width="190" height="40" as="geometry" />
        </mxCell>
        <mxCell id="wXZm230qfCR7dl6KXvyp-2" value="" style="group" parent="wXZm230qfCR7dl6KXvyp-1" vertex="1" connectable="0">
          <mxGeometry width="190" height="40" as="geometry" />
        </mxCell>
        <mxCell id="wXZm230qfCR7dl6KXvyp-3" value="Отобразить информацию о задании" style="text;html=1;align=center;verticalAlign=middle;resizable=0;points=[];autosize=1;strokeColor=none;fillColor=none;" parent="wXZm230qfCR7dl6KXvyp-2" vertex="1">
          <mxGeometry x="-40" y="5" width="230" height="30" as="geometry" />
        </mxCell>
        <mxCell id="wXZm230qfCR7dl6KXvyp-4" value="" style="endArrow=classic;html=1;rounded=0;entryX=1;entryY=0.25;entryDx=0;entryDy=0;exitX=0;exitY=0.25;exitDx=0;exitDy=0;dashed=1;" parent="1" edge="1">
          <mxGeometry width="50" height="50" relative="1" as="geometry">
            <mxPoint x="-440" y="1809.0900000000006" as="sourcePoint" />
            <mxPoint x="-669.9999999999999" y="1809.0900000000001" as="targetPoint" />
          </mxGeometry>
        </mxCell>
        <mxCell id="wXZm230qfCR7dl6KXvyp-5" value="Написать ответ на задание" style="text;html=1;align=center;verticalAlign=middle;resizable=0;points=[];autosize=1;strokeColor=none;fillColor=none;" parent="1" vertex="1">
          <mxGeometry x="-648.5" y="1840" width="180" height="30" as="geometry" />
        </mxCell>
        <mxCell id="wXZm230qfCR7dl6KXvyp-6" value="" style="endArrow=classic;html=1;rounded=0;exitX=1;exitY=0.5;exitDx=0;exitDy=0;entryX=0;entryY=0.5;entryDx=0;entryDy=0;" parent="1" edge="1">
          <mxGeometry width="50" height="50" relative="1" as="geometry">
            <mxPoint x="-670.0000000000002" y="1870" as="sourcePoint" />
            <mxPoint x="-439.9999999999998" y="1870" as="targetPoint" />
          </mxGeometry>
        </mxCell>
        <mxCell id="wXZm230qfCR7dl6KXvyp-7" value="" style="group" parent="1" vertex="1" connectable="0">
          <mxGeometry x="-382.5" y="1860" width="195" height="40" as="geometry" />
        </mxCell>
        <mxCell id="wXZm230qfCR7dl6KXvyp-8" value="Передать информацию" style="text;html=1;align=center;verticalAlign=middle;resizable=0;points=[];autosize=1;strokeColor=none;fillColor=none;" parent="wXZm230qfCR7dl6KXvyp-7" vertex="1">
          <mxGeometry x="-10" y="5" width="150" height="30" as="geometry" />
        </mxCell>
        <mxCell id="wXZm230qfCR7dl6KXvyp-9" value="" style="endArrow=classic;html=1;rounded=0;exitX=1;exitY=0.25;exitDx=0;exitDy=0;entryX=0;entryY=0.25;entryDx=0;entryDy=0;" parent="1" edge="1">
          <mxGeometry width="50" height="50" relative="1" as="geometry">
            <mxPoint x="-430" y="1900" as="sourcePoint" />
            <mxPoint x="-200" y="1900" as="targetPoint" />
          </mxGeometry>
        </mxCell>
        <mxCell id="wXZm230qfCR7dl6KXvyp-10" value="Добавить ответ&lt;div&gt;на задание в бд&lt;/div&gt;" style="text;html=1;align=center;verticalAlign=middle;resizable=0;points=[];autosize=1;strokeColor=none;fillColor=none;" parent="1" vertex="1">
          <mxGeometry x="-150" y="1910" width="110" height="40" as="geometry" />
        </mxCell>
        <mxCell id="wXZm230qfCR7dl6KXvyp-11" value="" style="edgeStyle=segmentEdgeStyle;endArrow=classic;html=1;curved=0;rounded=0;endSize=8;startSize=8;sourcePerimeterSpacing=0;targetPerimeterSpacing=0;entryX=1;entryY=0.5;entryDx=0;entryDy=0;exitX=1.033;exitY=0.577;exitDx=0;exitDy=0;exitPerimeter=0;" parent="1" edge="1">
          <mxGeometry width="100" relative="1" as="geometry">
            <mxPoint x="-190" y="1912" as="sourcePoint" />
            <mxPoint x="-183" y="1951" as="targetPoint" />
            <Array as="points">
              <mxPoint x="-190" y="1910" />
              <mxPoint x="-148" y="1910" />
              <mxPoint x="-148" y="1951" />
            </Array>
          </mxGeometry>
        </mxCell>
        <mxCell id="wXZm230qfCR7dl6KXvyp-12" value="" style="rounded=0;whiteSpace=wrap;html=1;" parent="1" vertex="1">
          <mxGeometry x="-195" y="1920" width="10" height="40" as="geometry" />
        </mxCell>
        <mxCell id="wXZm230qfCR7dl6KXvyp-13" value="Вернуть результат" style="text;html=1;align=center;verticalAlign=middle;resizable=0;points=[];autosize=1;strokeColor=none;fillColor=none;" parent="1" vertex="1">
          <mxGeometry x="-386" y="1950" width="130" height="30" as="geometry" />
        </mxCell>
        <mxCell id="wXZm230qfCR7dl6KXvyp-14" value="" style="endArrow=classic;html=1;rounded=0;exitX=-0.367;exitY=0.668;exitDx=0;exitDy=0;exitPerimeter=0;entryX=1.167;entryY=0.669;entryDx=0;entryDy=0;entryPerimeter=0;dashed=1;" parent="1" edge="1">
          <mxGeometry width="50" height="50" relative="1" as="geometry">
            <mxPoint x="-202.5" y="1984" as="sourcePoint" />
            <mxPoint x="-426.5" y="1985" as="targetPoint" />
          </mxGeometry>
        </mxCell>
      </root>
    </mxGraphModel>
  </diagram>
</mxfile>
